<svg id="Layer_2" data-name="Layer 2" xmlns="http://www.w3.org/2000/svg" viewBox="0 0 302.75 302.75">
    <defs>
        <style>
            .cls-1 {
            fill: url(#linear-gradient);
            }

            .cls-2 {
            fill: #fff;
            stroke-width: 4px;
            }

            .cls-2, .cls-3 {
            stroke: #fff;
            stroke-miterlimit: 10;
            }

            .cls-3 {
            fill: none;
            stroke-width: 10px;
            }
        </style>
        <linearGradient id="linear-gradient" x1="27.05" y1="27.05" x2="275.7" y2="275.7" gradientUnits="userSpaceOnUse">
            <stop offset="0" stop-color="#3650dc"/>
            <stop offset=".02" stop-color="#354fd6"/>
            <stop offset=".1" stop-color="#324bc4"/>
            <stop offset=".19" stop-color="#3049b8"/>
            <stop offset=".28" stop-color="#3049b5"/>
            <stop offset=".67" stop-color="#182456"/>
            <stop offset=".89" stop-color="#0b0f1e"/>
            <stop offset="1" stop-color="#0b0b0b"/>
        </linearGradient>
    </defs>
    <g id="Translate_icons">
        <rect class="cls-1" width="302.75" height="302.75" rx="92.36" ry="92.36"/>
        <path class="cls-3" d="m81.7,92.9l-1.29,56.19c-.09,3.78,1.38,7.44,4.05,10.11l77.31,77.31c5.41,5.41,14.18,5.41,19.59,0l28.74-28.74,28.74-28.74c5.41-5.41,5.41-14.18,0-19.59l-77.31-77.31c-2.68-2.68-6.33-4.14-10.11-4.05l-56.19,1.29c-7.4.17-13.36,6.13-13.53,13.53Z"/>
        <path class="cls-2" d="m130.54,121.69c0,3.61-2.92,6.53-6.53,6.53-3.61,0-6.53-2.92-6.53-6.53,0-3.61,2.92-6.53,6.53-6.53s6.53,2.92,6.53,6.53Z"/>
    </g>
</svg>