<svg id="Layer_2" data-name="Layer 2" xmlns="http://www.w3.org/2000/svg" viewBox="0 0 172.48 172.48">
    <defs>
        <style>
            .cls-1 {
            fill: #fff;
            stroke-width: 4px;
            }

            .cls-1, .cls-2 {
            stroke: #fff;
            stroke-miterlimit: 10;
            }

            .cls-2 {
            fill: none;
            stroke-width: 10px;
            }
        </style>
    </defs>
    <g id="Translate_icons">
        <path class="cls-2" d="m6.29,19.82l-1.29,56.19c-.09,3.78,1.38,7.44,4.05,10.11l77.31,77.31c5.41,5.41,14.18,5.41,19.59,0l28.74-28.74,28.74-28.74c5.41-5.41,5.41-14.18,0-19.59L86.12,9.06c-2.68-2.68-6.33-4.14-10.11-4.05l-56.19,1.29c-7.4.17-13.36,6.13-13.53,13.53Z"/>
        <path class="cls-1" d="m55.14,48.61c0,3.61-2.92,6.53-6.53,6.53-3.61,0-6.53-2.92-6.53-6.53,0-3.61,2.92-6.53,6.53-6.53s6.53,2.92,6.53,6.53Z"/>
    </g>
</svg>